<svg xmlns="http://www.w3.org/2000/svg" width="520" height="530" viewBox="0 0 520 530" font-family="ui-monospace, SFMono-Regular, Menlo, Consolas, monospace"><defs><linearGradient id="ibg" x1="0" y1="0" x2="0" y2="1"><stop offset="0" stop-color="#111722"/><stop offset="1" stop-color="#0d1117"/></linearGradient></defs><rect width="520" height="530" rx="12" fill="url(#ibg)"/><rect x="0.5" y="0.5" width="519" height="529" rx="12" fill="none" stroke="#30363d"/><line x1="0" y1="30" x2="520" y2="30" stroke="#30363d"/><circle cx="20" cy="15.0" r="5" fill="#ff5f56"/><circle cx="36" cy="15.0" r="5" fill="#ffbd2e"/><circle cx="52" cy="15.0" r="5" fill="#27c93f"/><text x="260.0" y="19.0" fill="#7d8590" font-size="12" text-anchor="middle">rehaann@github: ~$ neofetch</text><g><text x="20" y="60.0" font-size="14" font-weight="700"><tspan fill="#3fb950">rehaann</tspan><tspan fill="#7d8590">@</tspan><tspan fill="#22d3ee">github</tspan></text><line x1="140" y1="56.0" x2="500" y2="56.0" stroke="#30363d" stroke-opacity="0.8"/></g><g><text x="20" y="80.5" fill="#ffa657" font-size="12.5" font-weight="700">OS</text><text x="138" y="80.5" fill="#c9d1d9" font-size="12.5">Windows 11, iOS 18, Linux</text></g><g><text x="20" y="101.0" fill="#ffa657" font-size="12.5" font-weight="700">Uptime</text><text x="138" y="101.0" fill="#c9d1d9" font-size="12.5">19 years, 11 months, 7 days</text></g><g><text x="20" y="121.5" fill="#ffa657" font-size="12.5" font-weight="700">Host</text><text x="138" y="121.5" fill="#c9d1d9" font-size="12.5">IEEE Computer Society -- Student Chapter</text></g><g><text x="20" y="142.0" fill="#ffa657" font-size="12.5" font-weight="700">Kernel</text><text x="138" y="142.0" fill="#c9d1d9" font-size="12.5">SOC (Security Operations Center) Operator</text></g><g><text x="20" y="162.5" fill="#ffa657" font-size="12.5" font-weight="700">IDE</text><text x="138" y="162.5" fill="#c9d1d9" font-size="12.5">VS Code, PyCharm</text></g><g><text x="20" y="193.2" fill="#58a6ff" font-size="12.5" font-weight="700">&#8212; Languages</text><line x1="104" y1="189.2" x2="500" y2="189.2" stroke="#30363d" stroke-opacity="0.8"/></g><g><text x="20" y="213.8" fill="#ffa657" font-size="12.5" font-weight="700">Programming</text><text x="138" y="213.8" fill="#c9d1d9" font-size="12.5">Python, C++, JavaScript</text></g><g><text x="20" y="234.2" fill="#ffa657" font-size="12.5" font-weight="700">Computer</text><text x="138" y="234.2" fill="#c9d1d9" font-size="12.5">Bash, SQL, YAML</text></g><g><text x="20" y="254.8" fill="#ffa657" font-size="12.5" font-weight="700">Real</text><text x="138" y="254.8" fill="#c9d1d9" font-size="12.5">English, Urdu</text></g><g><text x="20" y="285.5" fill="#58a6ff" font-size="12.5" font-weight="700">&#8212; Hobbies</text><line x1="88" y1="281.5" x2="500" y2="281.5" stroke="#30363d" stroke-opacity="0.8"/></g><g><text x="20" y="306.0" fill="#ffa657" font-size="12.5" font-weight="700">Software</text><text x="138" y="306.0" fill="#c9d1d9" font-size="12.5">CTFs, TryHackMe, Open Source</text></g><g><text x="20" y="326.5" fill="#ffa657" font-size="12.5" font-weight="700">Hardware</text><text x="138" y="326.5" fill="#c9d1d9" font-size="12.5">Home-lab SOC builds, VMs</text></g><g><text x="20" y="357.2" fill="#58a6ff" font-size="12.5" font-weight="700">&#8212; Contact</text><line x1="88" y1="353.2" x2="500" y2="353.2" stroke="#30363d" stroke-opacity="0.8"/></g><g><text x="20" y="377.8" fill="#ffa657" font-size="12.5" font-weight="700">Email</text><text x="138" y="377.8" fill="#c9d1d9" font-size="12.5">dev.rehaann@gmail.com</text></g><g><text x="20" y="398.2" fill="#ffa657" font-size="12.5" font-weight="700">LinkedIn</text><text x="138" y="398.2" fill="#c9d1d9" font-size="12.5">rehan-khan-606242404</text></g><g><text x="20" y="429.0" fill="#58a6ff" font-size="12.5" font-weight="700">&#8212; GitHub Stats</text><line x1="128" y1="425.0" x2="500" y2="425.0" stroke="#30363d" stroke-opacity="0.8"/></g><g><text x="20" y="449.5" fill="#ffa657" font-size="12.5" font-weight="700">Repos</text><text x="138" y="449.5" fill="#c9d1d9" font-size="12.5">12  |  Stars: 3</text></g><g><text x="20" y="470.0" fill="#ffa657" font-size="12.5" font-weight="700">Contributions</text><text x="138" y="470.0" fill="#c9d1d9" font-size="12.5">98 (past year)</text></g><g><text x="20" y="490.5" fill="#ffa657" font-size="12.5" font-weight="700">Streak</text><text x="138" y="490.5" fill="#c9d1d9" font-size="12.5">Longest: 6 days</text></g></svg>